<svg width="294" height="309" viewBox="0 0 294 309" fill="none" xmlns="http://www.w3.org/2000/svg">
<path d="M55.1106 11.5514C56.0329 11.5514 56.7824 11.8594 57.3588 12.4755C57.9353 13.0916 58.2235 13.8617 58.2235 14.7858V48.4581C58.2235 49.4592 57.8776 50.3064 57.1859 50.9994C56.5326 51.654 55.7062 51.9813 54.7071 51.9813C54.2074 51.9813 53.6886 51.9043 53.1506 51.7503C52.6509 51.5578 52.2667 51.3074 51.9977 50.9994L29.3424 22.1787L30.8412 21.2546V48.7469C30.8412 49.671 30.5338 50.4411 29.9188 51.0572C29.3424 51.6733 28.5738 51.9813 27.6129 51.9813C26.6906 51.9813 25.9412 51.6733 25.3647 51.0572C24.7882 50.4411 24.5 49.671 24.5 48.7469V15.0746C24.5 14.0735 24.8267 13.2456 25.48 12.591C26.1718 11.8979 27.0173 11.5514 28.0165 11.5514C28.5545 11.5514 29.1118 11.6669 29.6882 11.8979C30.2647 12.0905 30.6874 12.3985 30.9565 12.8221L52.92 40.892L51.94 41.585V14.7858C51.94 13.8617 52.2282 13.0916 52.8047 12.4755C53.3812 11.8594 54.1498 11.5514 55.1106 11.5514ZM96.2333 36.5602C96.2333 39.7176 95.5222 42.5092 94.1003 44.935C92.7168 47.3222 90.8336 49.1898 88.4509 50.5374C86.1065 51.885 83.474 52.5589 80.5533 52.5589C77.6324 52.5589 74.9807 51.885 72.598 50.5374C70.2536 49.1898 68.3704 47.3222 66.9486 44.935C65.565 42.5092 64.8733 39.7176 64.8733 36.5602C64.8733 33.4028 65.565 30.6304 66.9486 28.2432C68.3704 25.8174 70.2536 23.9306 72.598 22.583C74.9807 21.1968 77.6324 20.5037 80.5533 20.5037C83.474 20.5037 86.1065 21.1968 88.4509 22.583C90.8336 23.9306 92.7168 25.8174 94.1003 28.2432C95.5222 30.6304 96.2333 33.4028 96.2333 36.5602ZM89.3156 36.5602C89.3156 34.5964 88.9121 32.9023 88.105 31.4776C87.3363 30.0144 86.2795 28.8785 84.9344 28.0699C83.6277 27.2613 82.1674 26.857 80.5533 26.857C78.9391 26.857 77.4595 27.2613 76.1144 28.0699C74.8077 28.8785 73.7509 30.0144 72.9439 31.4776C72.1751 32.9023 71.7909 34.5964 71.7909 36.5602C71.7909 38.4854 72.1751 40.1797 72.9439 41.6428C73.7509 43.0675 74.8077 44.1841 76.1144 44.9927C77.4595 45.8013 78.9391 46.2056 80.5533 46.2056C82.1674 46.2056 83.6277 45.8013 84.9344 44.9927C86.2795 44.1841 87.3363 43.0675 88.105 41.6428C88.9121 40.1797 89.3156 38.4854 89.3156 36.5602ZM102.633 21.6589H116.296C117.218 21.6589 117.987 21.9669 118.602 22.583C119.217 23.1991 119.524 23.9692 119.524 24.8933C119.524 25.7788 119.217 26.5297 118.602 27.1458C117.987 27.7234 117.218 28.0121 116.296 28.0121H102.633C101.711 28.0121 100.942 27.7042 100.327 27.088C99.7125 26.4719 99.4052 25.7019 99.4052 24.7778C99.4052 23.8922 99.7125 23.1606 100.327 22.583C100.942 21.9669 101.711 21.6589 102.633 21.6589ZM108.802 14.4392C109.801 14.4392 110.608 14.7858 111.223 15.4789C111.876 16.1334 112.203 16.9614 112.203 17.9624V43.6643C112.203 44.2033 112.299 44.6462 112.491 44.9927C112.722 45.3393 113.01 45.5895 113.356 45.7435C113.74 45.8976 114.144 45.9746 114.566 45.9746C115.028 45.9746 115.45 45.8976 115.835 45.7435C116.219 45.5511 116.661 45.4548 117.16 45.4548C117.698 45.4548 118.179 45.705 118.602 46.2056C119.063 46.7062 119.293 47.3993 119.293 48.2849C119.293 49.363 118.698 50.2486 117.506 50.9417C116.353 51.6348 115.104 51.9813 113.759 51.9813C112.952 51.9813 112.049 51.9236 111.05 51.808C110.089 51.654 109.167 51.3268 108.283 50.8262C107.437 50.2872 106.726 49.4786 106.15 48.4004C105.573 47.3222 105.285 45.8399 105.285 43.9531V17.9624C105.285 16.9614 105.612 16.1334 106.265 15.4789C106.957 14.7858 107.802 14.4392 108.802 14.4392ZM167.282 20.5037C168.28 20.5037 169.108 20.8311 169.76 21.4856C170.413 22.1401 170.741 22.9873 170.741 24.0269V48.4581C170.741 49.4592 170.413 50.3064 169.76 50.9994C169.108 51.654 168.28 51.9813 167.282 51.9813C166.283 51.9813 165.456 51.654 164.803 50.9994C164.15 50.3064 163.823 49.4592 163.823 48.4581V45.628L165.091 46.1479C165.091 46.6485 164.822 47.2644 164.284 47.9961C163.746 48.6892 163.016 49.3822 162.093 50.0753C161.171 50.7684 160.076 51.3652 158.808 51.8658C157.578 52.3278 156.232 52.5589 154.772 52.5589C152.12 52.5589 149.718 51.885 147.566 50.5374C145.415 49.1512 143.704 47.2644 142.436 44.8772C141.206 42.4514 140.591 39.6791 140.591 36.5602C140.591 33.4028 141.206 30.6304 142.436 28.2432C143.704 25.8174 145.395 23.9306 147.509 22.583C149.623 21.1968 151.966 20.5037 154.542 20.5037C156.195 20.5037 157.712 20.754 159.096 21.2546C160.479 21.7552 161.671 22.3905 162.67 23.1606C163.708 23.9306 164.496 24.72 165.033 25.5286C165.61 26.2986 165.898 26.9533 165.898 27.4923L163.823 28.2432V24.0269C163.823 23.0258 164.15 22.1979 164.803 21.5434C165.456 20.8503 166.283 20.5037 167.282 20.5037ZM155.637 46.2056C157.327 46.2056 158.808 45.7821 160.076 44.935C161.344 44.0878 162.324 42.9327 163.016 41.4695C163.746 40.0064 164.111 38.3699 164.111 36.5602C164.111 34.712 163.746 33.0562 163.016 31.5931C162.324 30.13 161.344 28.9748 160.076 28.1277C158.808 27.2805 157.327 26.857 155.637 26.857C153.984 26.857 152.524 27.2805 151.256 28.1277C149.988 28.9748 148.989 30.13 148.258 31.5931C147.566 33.0562 147.221 34.712 147.221 36.5602C147.221 38.3699 147.566 40.0064 148.258 41.4695C148.989 42.9327 149.988 44.0878 151.256 44.935C152.524 45.7821 153.984 46.2056 155.637 46.2056ZM185.724 48.4581C185.724 49.4592 185.379 50.3064 184.687 50.9994C184.034 51.654 183.208 51.9813 182.208 51.9813C181.248 51.9813 180.441 51.654 179.787 50.9994C179.134 50.3064 178.807 49.4592 178.807 48.4581V12.7643C178.807 11.7632 179.134 10.9353 179.787 10.2807C180.479 9.58766 181.325 9.24112 182.323 9.24112C183.323 9.24112 184.13 9.58766 184.744 10.2807C185.399 10.9353 185.724 11.7632 185.724 12.7643V48.4581ZM201.263 48.4581C201.263 49.4592 200.917 50.3064 200.226 50.9994C199.571 51.654 198.745 51.9813 197.747 51.9813C196.785 51.9813 195.978 51.654 195.326 50.9994C194.671 50.3064 194.346 49.4592 194.346 48.4581V12.7643C194.346 11.7632 194.671 10.9353 195.326 10.2807C196.017 9.58766 196.862 9.24112 197.862 9.24112C198.861 9.24112 199.668 9.58766 200.283 10.2807C200.936 10.9353 201.263 11.7632 201.263 12.7643V48.4581Z" fill="white"/>
<path d="M59.4341 166.918C60.318 166.918 61.0867 167.264 61.74 167.957C62.3933 168.611 62.72 169.459 62.72 170.499C62.72 170.769 62.7008 171.018 62.6623 171.25C62.6239 171.442 62.5662 171.635 62.4894 171.827L53.6694 195.623C53.4003 196.393 52.92 196.99 52.2282 197.413C51.5365 197.799 50.8062 197.933 50.0376 197.818C48.7309 197.741 47.7509 197.009 47.0976 195.623L41.3906 179.162L42.8894 179.22L37.5282 195.623C36.875 197.009 35.895 197.741 34.5882 197.818C33.858 197.933 33.1279 197.799 32.3976 197.413C31.7059 196.99 31.2255 196.393 30.9565 195.623L22.1365 171.827C21.9827 171.404 21.9059 170.961 21.9059 170.499C21.9059 169.575 22.2133 168.747 22.8282 168.015C23.4432 167.283 24.2886 166.918 25.3647 166.918C26.095 166.918 26.7482 167.091 27.3247 167.438C27.9012 167.784 28.3047 168.343 28.5353 169.113L35.5106 188.057L34.0694 187.941L39.3153 173.675C39.9302 172.25 40.9871 171.538 42.4859 171.538C43.3314 171.538 43.9655 171.73 44.3882 172.116C44.8494 172.462 45.2145 172.982 45.4835 173.675L50.7294 187.941L49 188.172L56.0906 169.113C56.5518 167.65 57.6662 166.918 59.4341 166.918ZM82.6992 198.395C79.4326 198.395 76.5886 197.721 74.1674 196.374C71.7847 194.988 69.94 193.121 68.6333 190.771C67.3651 188.422 66.7309 185.765 66.7309 182.801C66.7309 179.336 67.4227 176.39 68.8062 173.964C70.2282 171.499 72.0729 169.614 74.3403 168.304C76.6079 166.994 79.0098 166.34 81.5462 166.34C83.5062 166.34 85.3509 166.744 87.0803 167.553C88.8482 168.362 90.4047 169.478 91.7498 170.903C93.095 172.289 94.1518 173.906 94.9203 175.755C95.7274 177.603 96.1309 179.567 96.1309 181.646C96.0926 182.57 95.7274 183.321 95.0356 183.898C94.3439 184.476 93.5368 184.765 92.6145 184.765H70.5933L68.8639 178.989H90.0203L88.7521 180.144V178.585C88.6753 177.469 88.2718 176.466 87.5415 175.581C86.8498 174.696 85.9659 174.003 84.8898 173.502C83.8521 172.963 82.7377 172.693 81.5462 172.693C80.3933 172.693 79.3173 172.848 78.318 173.156C77.3188 173.463 76.4541 173.983 75.7239 174.715C74.9938 175.447 74.4173 176.429 73.9945 177.661C73.5718 178.892 73.3603 180.452 73.3603 182.339C73.3603 184.418 73.7832 186.19 74.6286 187.653C75.5126 189.078 76.6271 190.175 77.9721 190.945C79.3556 191.677 80.8161 192.042 82.3533 192.042C83.7753 192.042 84.9091 191.927 85.7545 191.696C86.6 191.464 87.2726 191.194 87.7721 190.887C88.3102 190.54 88.7906 190.252 89.2133 190.021C89.9051 189.674 90.5585 189.501 91.1733 189.501C92.0188 189.501 92.7106 189.79 93.2486 190.367C93.8251 190.945 94.1133 191.619 94.1133 192.389C94.1133 193.428 93.5753 194.371 92.4992 195.219C91.5 196.066 90.0973 196.817 88.2909 197.471C86.4847 198.088 84.6208 198.395 82.6992 198.395ZM127.649 166.34C128.649 166.34 129.475 166.668 130.128 167.322C130.782 167.976 131.108 168.824 131.108 169.863V194.295C131.108 195.295 130.782 196.143 130.128 196.836C129.475 197.49 128.649 197.818 127.649 197.818C126.65 197.818 125.824 197.49 125.171 196.836C124.517 196.143 124.191 195.295 124.191 194.295V191.464L125.459 191.984C125.459 192.485 125.19 193.1 124.652 193.833C124.114 194.526 123.384 195.219 122.461 195.912C121.539 196.605 120.444 197.201 119.175 197.702C117.946 198.164 116.601 198.395 115.14 198.395C112.488 198.395 110.086 197.721 107.934 196.374C105.782 194.988 104.072 193.1 102.804 190.714C101.574 188.288 100.959 185.516 100.959 182.397C100.959 179.239 101.574 176.466 102.804 174.08C104.072 171.654 105.763 169.767 107.877 168.419C109.99 167.033 112.335 166.34 114.909 166.34C116.562 166.34 118.08 166.59 119.464 167.091C120.847 167.592 122.039 168.227 123.038 168.997C124.075 169.767 124.863 170.556 125.401 171.365C125.978 172.135 126.266 172.79 126.266 173.329L124.191 174.08V169.863C124.191 168.863 124.517 168.034 125.171 167.38C125.824 166.687 126.65 166.34 127.649 166.34ZM116.005 192.042C117.696 192.042 119.175 191.619 120.444 190.771C121.712 189.924 122.692 188.769 123.384 187.306C124.114 185.843 124.479 184.206 124.479 182.397C124.479 180.548 124.114 178.892 123.384 177.43C122.692 175.967 121.712 174.812 120.444 173.964C119.175 173.117 117.696 172.693 116.005 172.693C114.352 172.693 112.892 173.117 111.624 173.964C110.355 174.812 109.356 175.967 108.626 177.43C107.934 178.892 107.588 180.548 107.588 182.397C107.588 184.206 107.934 185.843 108.626 187.306C109.356 188.769 110.355 189.924 111.624 190.771C112.892 191.619 114.352 192.042 116.005 192.042ZM142.057 197.818C141.058 197.818 140.232 197.49 139.578 196.836C138.925 196.143 138.598 195.295 138.598 194.295V170.441C138.598 169.44 138.925 168.611 139.578 167.957C140.232 167.264 141.058 166.918 142.057 166.918C143.056 166.918 143.883 167.264 144.536 167.957C145.19 168.611 145.516 169.44 145.516 170.441V175.87L145.112 172C145.536 171.076 146.073 170.268 146.726 169.575C147.418 168.843 148.188 168.246 149.032 167.784C149.878 167.283 150.782 166.918 151.741 166.687C152.703 166.456 153.664 166.34 154.624 166.34C155.777 166.34 156.738 166.668 157.506 167.322C158.313 167.976 158.717 168.747 158.717 169.632C158.717 170.903 158.391 171.827 157.737 172.405C157.084 172.943 156.373 173.213 155.604 173.213C154.875 173.213 154.202 173.079 153.586 172.809C153.01 172.539 152.338 172.405 151.569 172.405C150.877 172.405 150.166 172.578 149.436 172.924C148.744 173.232 148.091 173.733 147.476 174.426C146.899 175.119 146.419 175.986 146.034 177.025C145.689 178.026 145.516 179.22 145.516 180.606V194.295C145.516 195.295 145.19 196.143 144.536 196.836C143.883 197.49 143.056 197.818 142.057 197.818Z" fill="white"/>
<path d="M29.792 81.4374C30.8988 81.4374 31.8673 81.8532 32.6974 82.6849C33.5737 83.4704 34.0118 84.4638 34.0118 85.6652V125.725C34.0118 126.927 33.5737 127.943 32.6974 128.775C31.8212 129.561 30.8066 129.953 29.6537 129.953C28.3624 129.953 27.3247 129.561 26.5407 128.775C25.7567 127.943 25.3647 126.927 25.3647 125.725V85.6652C25.3647 84.4638 25.7798 83.4704 26.6099 82.6849C27.44 81.8532 28.5007 81.4374 29.792 81.4374ZM60.4372 81.4374C61.7285 81.4374 62.7661 81.8532 63.5501 82.6849C64.3341 83.4704 64.7261 84.4638 64.7261 85.6652V125.725C64.7261 126.927 64.3111 127.943 63.4809 128.775C62.6969 129.561 61.6362 129.953 60.2988 129.953C59.192 129.953 58.2005 129.561 57.3242 128.775C56.4941 127.943 56.0791 126.927 56.0791 125.725V85.6652C56.0791 84.4638 56.5172 83.4704 57.3934 82.6849C58.2697 81.8532 59.2842 81.4374 60.4372 81.4374ZM29.5845 101.606H60.4372V109.577H29.5845V101.606ZM91.826 130.646C87.906 130.646 84.4933 129.838 81.5879 128.221C78.7286 126.557 76.5149 124.316 74.9469 121.498C73.4251 118.679 72.6641 115.491 72.6641 111.933C72.6641 107.775 73.4942 104.24 75.1545 101.329C76.8608 98.3717 79.0745 96.1077 81.7954 94.5367C84.5164 92.9657 87.3987 92.1802 90.4425 92.1802C92.7945 92.1802 95.0081 92.6653 97.0834 93.6357C99.2048 94.606 101.073 95.9459 102.687 97.6555C104.301 99.319 105.569 101.26 106.491 103.477C107.46 105.695 107.944 108.052 107.944 110.547C107.898 111.656 107.46 112.557 106.63 113.25C105.8 113.943 104.831 114.29 103.724 114.29H77.299L75.2237 107.359H100.611L99.0895 108.745V106.874C98.9973 105.534 98.5131 104.332 97.6368 103.27C96.8067 102.207 95.746 101.375 94.4547 100.774C93.2095 100.128 91.8721 99.8041 90.4425 99.8041C89.0589 99.8041 87.7677 99.9889 86.5686 100.359C85.3695 100.728 84.3319 101.352 83.4557 102.23C82.5794 103.108 81.8876 104.286 81.3804 105.765C80.8731 107.243 80.6194 109.115 80.6194 111.379C80.6194 113.874 81.1267 115.999 82.1413 117.755C83.202 119.465 84.5394 120.781 86.1535 121.706C87.8138 122.583 89.5662 123.022 91.4109 123.022C93.1173 123.022 94.4778 122.884 95.4924 122.607C96.507 122.329 97.314 122.006 97.9135 121.636C98.5592 121.22 99.1357 120.874 99.643 120.597C100.473 120.181 101.257 119.973 101.995 119.973C103.01 119.973 103.84 120.319 104.485 121.012C105.177 121.706 105.523 122.514 105.523 123.438C105.523 124.686 104.877 125.818 103.586 126.834C102.387 127.851 100.704 128.752 98.5361 129.537C96.3686 130.277 94.1319 130.646 91.826 130.646ZM119.347 129.953C118.148 129.953 117.157 129.561 116.373 128.775C115.589 127.943 115.197 126.927 115.197 125.725V97.1011C115.197 95.8997 115.589 94.9063 116.373 94.1208C117.157 93.2891 118.148 92.8733 119.347 92.8733C120.546 92.8733 121.538 93.2891 122.322 94.1208C123.106 94.9063 123.498 95.8997 123.498 97.1011V103.616L123.014 98.9724C123.521 97.8635 124.167 96.8932 124.951 96.0614C125.781 95.1835 126.703 94.4674 127.718 93.9129C128.732 93.3122 129.816 92.8733 130.969 92.596C132.122 92.3188 133.275 92.1802 134.428 92.1802C135.811 92.1802 136.964 92.5729 137.887 93.3584C138.855 94.1439 139.339 95.068 139.339 96.1308C139.339 97.6555 138.947 98.7645 138.163 99.4576C137.379 100.104 136.526 100.428 135.604 100.428C134.728 100.428 133.921 100.266 133.183 99.9427C132.491 99.6193 131.684 99.4576 130.762 99.4576C129.931 99.4576 129.078 99.6655 128.202 100.081C127.372 100.451 126.588 101.052 125.85 101.883C125.158 102.715 124.582 103.755 124.121 105.002C123.706 106.204 123.498 107.636 123.498 109.299V125.725C123.498 126.927 123.106 127.943 122.322 128.775C121.538 129.561 120.546 129.953 119.347 129.953ZM179.54 111.448C179.54 115.237 178.687 118.587 176.981 121.498C175.321 124.362 173.061 126.603 170.202 128.221C167.388 129.838 164.229 130.646 160.724 130.646C157.219 130.646 154.037 129.838 151.178 128.221C148.365 126.603 146.105 124.362 144.399 121.498C142.738 118.587 141.908 115.237 141.908 111.448C141.908 107.659 142.738 104.332 144.399 101.468C146.105 98.5566 148.365 96.2925 151.178 94.6753C154.037 93.0119 157.219 92.1802 160.724 92.1802C164.229 92.1802 167.388 93.0119 170.202 94.6753C173.061 96.2925 175.321 98.5566 176.981 101.468C178.687 104.332 179.54 107.659 179.54 111.448ZM171.239 111.448C171.239 109.091 170.755 107.058 169.786 105.349C168.864 103.593 167.596 102.23 165.982 101.26C164.414 100.289 162.661 99.8041 160.724 99.8041C158.787 99.8041 157.012 100.289 155.398 101.26C153.83 102.23 152.562 103.593 151.593 105.349C150.671 107.058 150.21 109.091 150.21 111.448C150.21 113.758 150.671 115.791 151.593 117.547C152.562 119.257 153.83 120.597 155.398 121.567C157.012 122.537 158.787 123.022 160.724 123.022C162.661 123.022 164.414 122.537 165.982 121.567C167.596 120.597 168.864 119.257 169.786 117.547C170.755 115.791 171.239 113.758 171.239 111.448ZM204.238 130.646C200.318 130.646 196.905 129.838 194 128.221C191.14 126.557 188.927 124.316 187.359 121.498C185.837 118.679 185.076 115.491 185.076 111.933C185.076 107.775 185.906 104.24 187.566 101.329C189.273 98.3717 191.486 96.1077 194.207 94.5367C196.928 92.9657 199.81 92.1802 202.854 92.1802C205.206 92.1802 207.42 92.6653 209.495 93.6357C211.617 94.606 213.484 95.9459 215.098 97.6555C216.713 99.319 217.981 101.26 218.903 103.477C219.872 105.695 220.356 108.052 220.356 110.547C220.31 111.656 219.872 112.557 219.042 113.25C218.211 113.943 217.243 114.29 216.136 114.29H189.711L187.635 107.359H213.023L211.501 108.745V106.874C211.409 105.534 210.925 104.332 210.049 103.27C209.218 102.207 208.158 101.375 206.866 100.774C205.621 100.128 204.284 99.8041 202.854 99.8041C201.471 99.8041 200.179 99.9889 198.98 100.359C197.781 100.728 196.744 101.352 195.867 102.23C194.991 103.108 194.299 104.286 193.792 105.765C193.285 107.243 193.031 109.115 193.031 111.379C193.031 113.874 193.538 115.999 194.553 117.755C195.614 119.465 196.951 120.781 198.565 121.706C200.226 122.583 201.978 123.022 203.823 123.022C205.529 123.022 206.89 122.884 207.904 122.607C208.919 122.329 209.726 122.006 210.325 121.636C210.971 121.22 211.547 120.874 212.055 120.597C212.885 120.181 213.669 119.973 214.407 119.973C215.421 119.973 216.251 120.319 216.897 121.012C217.589 121.706 217.935 122.514 217.935 123.438C217.935 124.686 217.289 125.818 215.998 126.834C214.799 127.851 213.115 128.752 210.948 129.537C208.78 130.277 206.544 130.646 204.238 130.646ZM225.465 124.201C225.004 123.554 224.796 122.722 224.842 121.706C224.888 120.689 225.488 119.811 226.641 119.072C227.379 118.61 228.163 118.425 228.993 118.517C229.823 118.564 230.63 118.979 231.414 119.765C232.751 121.105 234.158 122.145 235.634 122.884C237.11 123.623 238.954 123.993 241.168 123.993C241.86 123.947 242.621 123.854 243.449 123.716C244.281 123.531 244.996 123.161 245.595 122.607C246.241 122.006 246.564 121.105 246.564 119.904C246.564 118.887 246.218 118.078 245.526 117.478C244.834 116.877 243.912 116.369 242.759 115.953C241.652 115.537 240.407 115.144 239.023 114.775C237.594 114.359 236.118 113.897 234.596 113.389C233.12 112.88 231.76 112.233 230.515 111.448C229.27 110.616 228.255 109.53 227.471 108.19C226.687 106.85 226.295 105.164 226.295 103.131C226.295 100.821 226.941 98.8569 228.232 97.2397C229.523 95.6225 231.183 94.3749 233.213 93.497C235.288 92.6191 237.455 92.1802 239.715 92.1802C241.145 92.1802 242.644 92.365 244.212 92.7346C245.78 93.0581 247.278 93.6126 248.708 94.398C250.138 95.1373 251.337 96.1308 252.305 97.3783C252.813 98.0714 253.112 98.9031 253.205 99.8734C253.297 100.844 252.859 101.722 251.89 102.507C251.199 103.062 250.391 103.316 249.469 103.27C248.547 103.177 247.786 102.854 247.186 102.299C246.402 101.283 245.342 100.474 244.004 99.8734C242.713 99.2727 241.214 98.9724 239.508 98.9724C238.816 98.9724 238.055 99.0648 237.225 99.2496C236.441 99.3883 235.749 99.7348 235.15 100.289C234.55 100.798 234.25 101.629 234.25 102.784C234.25 103.847 234.596 104.702 235.288 105.349C235.98 105.949 236.902 106.458 238.055 106.874C239.254 107.243 240.522 107.613 241.86 107.982C243.243 108.352 244.65 108.791 246.079 109.299C247.509 109.808 248.823 110.478 250.022 111.309C251.222 112.141 252.19 113.227 252.928 114.567C253.666 115.861 254.035 117.524 254.035 119.557C254.035 121.913 253.343 123.923 251.959 125.587C250.576 127.25 248.846 128.521 246.771 129.399C244.696 130.23 242.574 130.646 240.406 130.646C237.686 130.646 234.965 130.184 232.243 129.26C229.523 128.29 227.263 126.603 225.465 124.201Z" fill="#2BD1E1"/>
<path d="M29.792 81.4374C30.8988 81.4374 31.8673 81.8532 32.6974 82.6849C33.5737 83.4704 34.0118 84.4638 34.0118 85.6652V125.725C34.0118 126.927 33.5737 127.943 32.6974 128.775C31.8212 129.561 30.8066 129.953 29.6537 129.953C28.3624 129.953 27.3247 129.561 26.5407 128.775C25.7567 127.943 25.3647 126.927 25.3647 125.725V85.6652C25.3647 84.4638 25.7798 83.4704 26.6099 82.6849C27.44 81.8532 28.5007 81.4374 29.792 81.4374ZM60.4372 81.4374C61.7285 81.4374 62.7661 81.8532 63.5501 82.6849C64.3341 83.4704 64.7261 84.4638 64.7261 85.6652V125.725C64.7261 126.927 64.3111 127.943 63.4809 128.775C62.6969 129.561 61.6362 129.953 60.2988 129.953C59.192 129.953 58.2005 129.561 57.3242 128.775C56.4941 127.943 56.0791 126.927 56.0791 125.725V85.6652C56.0791 84.4638 56.5172 83.4704 57.3934 82.6849C58.2697 81.8532 59.2842 81.4374 60.4372 81.4374ZM29.5845 101.606H60.4372V109.577H29.5845V101.606ZM91.826 130.646C87.906 130.646 84.4933 129.838 81.5879 128.221C78.7286 126.557 76.5149 124.316 74.9469 121.498C73.4251 118.679 72.6641 115.491 72.6641 111.933C72.6641 107.775 73.4942 104.24 75.1545 101.329C76.8608 98.3717 79.0745 96.1077 81.7954 94.5367C84.5164 92.9657 87.3987 92.1802 90.4425 92.1802C92.7945 92.1802 95.0081 92.6653 97.0834 93.6357C99.2048 94.606 101.073 95.9459 102.687 97.6555C104.301 99.319 105.569 101.26 106.491 103.477C107.46 105.695 107.944 108.052 107.944 110.547C107.898 111.656 107.46 112.557 106.63 113.25C105.8 113.943 104.831 114.29 103.724 114.29H77.299L75.2237 107.359H100.611L99.0895 108.745V106.874C98.9973 105.534 98.5131 104.332 97.6368 103.27C96.8067 102.207 95.746 101.375 94.4547 100.774C93.2095 100.128 91.8721 99.8041 90.4425 99.8041C89.0589 99.8041 87.7677 99.9889 86.5686 100.359C85.3695 100.728 84.3319 101.352 83.4557 102.23C82.5794 103.108 81.8876 104.286 81.3804 105.765C80.8731 107.243 80.6194 109.115 80.6194 111.379C80.6194 113.874 81.1267 115.999 82.1413 117.755C83.202 119.465 84.5394 120.781 86.1535 121.706C87.8138 122.583 89.5662 123.022 91.4109 123.022C93.1173 123.022 94.4778 122.884 95.4924 122.607C96.507 122.329 97.314 122.006 97.9135 121.636C98.5592 121.22 99.1357 120.874 99.643 120.597C100.473 120.181 101.257 119.973 101.995 119.973C103.01 119.973 103.84 120.319 104.485 121.012C105.177 121.706 105.523 122.514 105.523 123.438C105.523 124.686 104.877 125.818 103.586 126.834C102.387 127.851 100.704 128.752 98.5361 129.537C96.3686 130.277 94.1319 130.646 91.826 130.646ZM119.347 129.953C118.148 129.953 117.157 129.561 116.373 128.775C115.589 127.943 115.197 126.927 115.197 125.725V97.1011C115.197 95.8997 115.589 94.9063 116.373 94.1208C117.157 93.2891 118.148 92.8733 119.347 92.8733C120.546 92.8733 121.538 93.2891 122.322 94.1208C123.106 94.9063 123.498 95.8997 123.498 97.1011V103.616L123.014 98.9724C123.521 97.8635 124.167 96.8932 124.951 96.0614C125.781 95.1835 126.703 94.4674 127.718 93.9129C128.732 93.3122 129.816 92.8733 130.969 92.596C132.122 92.3188 133.275 92.1802 134.428 92.1802C135.811 92.1802 136.964 92.5729 137.887 93.3584C138.855 94.1439 139.339 95.068 139.339 96.1308C139.339 97.6555 138.947 98.7645 138.163 99.4576C137.379 100.104 136.526 100.428 135.604 100.428C134.728 100.428 133.921 100.266 133.183 99.9427C132.491 99.6193 131.684 99.4576 130.762 99.4576C129.931 99.4576 129.078 99.6655 128.202 100.081C127.372 100.451 126.588 101.052 125.85 101.883C125.158 102.715 124.582 103.755 124.121 105.002C123.706 106.204 123.498 107.636 123.498 109.299V125.725C123.498 126.927 123.106 127.943 122.322 128.775C121.538 129.561 120.546 129.953 119.347 129.953ZM179.54 111.448C179.54 115.237 178.687 118.587 176.981 121.498C175.321 124.362 173.061 126.603 170.202 128.221C167.388 129.838 164.229 130.646 160.724 130.646C157.219 130.646 154.037 129.838 151.178 128.221C148.365 126.603 146.105 124.362 144.399 121.498C142.738 118.587 141.908 115.237 141.908 111.448C141.908 107.659 142.738 104.332 144.399 101.468C146.105 98.5566 148.365 96.2925 151.178 94.6753C154.037 93.0119 157.219 92.1802 160.724 92.1802C164.229 92.1802 167.388 93.0119 170.202 94.6753C173.061 96.2925 175.321 98.5566 176.981 101.468C178.687 104.332 179.54 107.659 179.54 111.448ZM171.239 111.448C171.239 109.091 170.755 107.058 169.786 105.349C168.864 103.593 167.596 102.23 165.982 101.26C164.414 100.289 162.661 99.8041 160.724 99.8041C158.787 99.8041 157.012 100.289 155.398 101.26C153.83 102.23 152.562 103.593 151.593 105.349C150.671 107.058 150.21 109.091 150.21 111.448C150.21 113.758 150.671 115.791 151.593 117.547C152.562 119.257 153.83 120.597 155.398 121.567C157.012 122.537 158.787 123.022 160.724 123.022C162.661 123.022 164.414 122.537 165.982 121.567C167.596 120.597 168.864 119.257 169.786 117.547C170.755 115.791 171.239 113.758 171.239 111.448ZM204.238 130.646C200.318 130.646 196.905 129.838 194 128.221C191.14 126.557 188.927 124.316 187.359 121.498C185.837 118.679 185.076 115.491 185.076 111.933C185.076 107.775 185.906 104.24 187.566 101.329C189.273 98.3717 191.486 96.1077 194.207 94.5367C196.928 92.9657 199.81 92.1802 202.854 92.1802C205.206 92.1802 207.42 92.6653 209.495 93.6357C211.617 94.606 213.484 95.9459 215.098 97.6555C216.713 99.319 217.981 101.26 218.903 103.477C219.872 105.695 220.356 108.052 220.356 110.547C220.31 111.656 219.872 112.557 219.042 113.25C218.211 113.943 217.243 114.29 216.136 114.29H189.711L187.635 107.359H213.023L211.501 108.745V106.874C211.409 105.534 210.925 104.332 210.049 103.27C209.218 102.207 208.158 101.375 206.866 100.774C205.621 100.128 204.284 99.8041 202.854 99.8041C201.471 99.8041 200.179 99.9889 198.98 100.359C197.781 100.728 196.744 101.352 195.867 102.23C194.991 103.108 194.299 104.286 193.792 105.765C193.285 107.243 193.031 109.115 193.031 111.379C193.031 113.874 193.538 115.999 194.553 117.755C195.614 119.465 196.951 120.781 198.565 121.706C200.226 122.583 201.978 123.022 203.823 123.022C205.529 123.022 206.89 122.884 207.904 122.607C208.919 122.329 209.726 122.006 210.325 121.636C210.971 121.22 211.547 120.874 212.055 120.597C212.885 120.181 213.669 119.973 214.407 119.973C215.421 119.973 216.251 120.319 216.897 121.012C217.589 121.706 217.935 122.514 217.935 123.438C217.935 124.686 217.289 125.818 215.998 126.834C214.799 127.851 213.115 128.752 210.948 129.537C208.78 130.277 206.544 130.646 204.238 130.646ZM225.465 124.201C225.004 123.554 224.796 122.722 224.842 121.706C224.888 120.689 225.488 119.811 226.641 119.072C227.379 118.61 228.163 118.425 228.993 118.517C229.823 118.564 230.63 118.979 231.414 119.765C232.751 121.105 234.158 122.145 235.634 122.884C237.11 123.623 238.954 123.993 241.168 123.993C241.86 123.947 242.621 123.854 243.449 123.716C244.281 123.531 244.996 123.161 245.595 122.607C246.241 122.006 246.564 121.105 246.564 119.904C246.564 118.887 246.218 118.078 245.526 117.478C244.834 116.877 243.912 116.369 242.759 115.953C241.652 115.537 240.407 115.144 239.023 114.775C237.594 114.359 236.118 113.897 234.596 113.389C233.12 112.88 231.76 112.233 230.515 111.448C229.27 110.616 228.255 109.53 227.471 108.19C226.687 106.85 226.295 105.164 226.295 103.131C226.295 100.821 226.941 98.8569 228.232 97.2397C229.523 95.6225 231.183 94.3749 233.213 93.497C235.288 92.6191 237.455 92.1802 239.715 92.1802C241.145 92.1802 242.644 92.365 244.212 92.7346C245.78 93.0581 247.278 93.6126 248.708 94.398C250.138 95.1373 251.337 96.1308 252.305 97.3783C252.813 98.0714 253.112 98.9031 253.205 99.8734C253.297 100.844 252.859 101.722 251.89 102.507C251.199 103.062 250.391 103.316 249.469 103.27C248.547 103.177 247.786 102.854 247.186 102.299C246.402 101.283 245.342 100.474 244.004 99.8734C242.713 99.2727 241.214 98.9724 239.508 98.9724C238.816 98.9724 238.055 99.0648 237.225 99.2496C236.441 99.3883 235.749 99.7348 235.15 100.289C234.55 100.798 234.25 101.629 234.25 102.784C234.25 103.847 234.596 104.702 235.288 105.349C235.98 105.949 236.902 106.458 238.055 106.874C239.254 107.243 240.522 107.613 241.86 107.982C243.243 108.352 244.65 108.791 246.079 109.299C247.509 109.808 248.823 110.478 250.022 111.309C251.222 112.141 252.19 113.227 252.928 114.567C253.666 115.861 254.035 117.524 254.035 119.557C254.035 121.913 253.343 123.923 251.959 125.587C250.576 127.25 248.846 128.521 246.771 129.399C244.696 130.23 242.574 130.646 240.406 130.646C237.686 130.646 234.965 130.184 232.243 129.26C229.523 128.29 227.263 126.603 225.465 124.201Z" fill="url(#paint0_linear_12_96)"/>
<path d="M72.2894 228.683C73.8881 229.484 74.8105 230.746 75.0565 232.472C75.3639 234.197 74.9335 235.768 73.7652 237.185C72.9658 238.294 71.9205 238.91 70.6292 239.033C69.3994 239.156 68.1388 238.91 66.8475 238.294C65.3718 237.617 63.8038 237.093 62.1435 236.723C60.5448 236.353 58.8537 236.168 57.0706 236.168C53.7501 236.168 50.7679 236.693 48.1238 237.739C45.5412 238.786 43.3275 240.297 41.4828 242.268C39.6381 244.178 38.2239 246.456 37.24 249.106C36.3176 251.756 35.8565 254.681 35.8565 257.885C35.8565 261.644 36.3792 264.908 37.4245 267.681C38.5313 270.453 40.0378 272.763 41.944 274.611C43.8502 276.46 46.0946 277.846 48.6772 278.77C51.2598 279.632 54.0575 280.064 57.0706 280.064C58.7308 280.064 60.3911 279.909 62.0513 279.602C63.7115 279.294 65.3102 278.74 66.8475 277.938C68.1388 277.322 69.3994 277.107 70.6292 277.291C71.9205 277.476 72.9966 278.123 73.8574 279.232C75.0872 280.773 75.5176 282.374 75.1487 284.037C74.8413 285.639 73.9189 286.81 72.3816 287.549C70.7829 288.35 69.1227 289.028 67.4009 289.582C65.7407 290.074 64.0498 290.444 62.328 290.691C60.6062 290.999 58.8537 291.153 57.0706 291.153C52.6433 291.153 48.4312 290.444 44.4343 289.028C40.4989 287.611 36.9633 285.516 33.8273 282.744C30.7528 279.971 28.3239 276.522 26.5407 272.394C24.7575 268.205 23.8659 263.368 23.8659 257.885C23.8659 253.142 24.6653 248.767 26.264 244.763C27.9242 240.759 30.2301 237.308 33.1816 234.413C36.1947 231.455 39.7303 229.175 43.7887 227.574C47.8471 225.911 52.2743 225.079 57.0706 225.079C59.7761 225.079 62.4202 225.387 65.0028 226.003C67.5854 226.62 70.0142 227.512 72.2894 228.683ZM124.398 239.865C125.997 239.865 127.319 240.389 128.364 241.436C129.409 242.483 129.932 243.839 129.932 245.502V284.592C129.932 286.193 129.409 287.549 128.364 288.658C127.319 289.705 125.997 290.229 124.398 290.229C122.799 290.229 121.477 289.705 120.432 288.658C119.387 287.549 118.864 286.193 118.864 284.592V280.064L120.893 280.895C120.893 281.697 120.463 282.682 119.602 283.853C118.741 284.962 117.573 286.07 116.097 287.179C114.621 288.288 112.869 289.243 110.839 290.044C108.872 290.783 106.72 291.153 104.383 291.153C100.14 291.153 96.297 290.074 92.8536 287.919C89.4102 285.701 86.6738 282.682 84.6446 278.862C82.677 274.981 81.6931 270.545 81.6931 265.555C81.6931 260.503 82.677 256.067 84.6446 252.248C86.6738 248.367 89.3793 245.347 92.7613 243.192C96.1433 240.974 99.8941 239.865 104.014 239.865C106.658 239.865 109.087 240.265 111.301 241.066C113.514 241.868 115.421 242.884 117.019 244.116C118.679 245.347 119.94 246.611 120.801 247.905C121.723 249.136 122.184 250.185 122.184 251.047L118.864 252.248V245.502C118.864 243.901 119.387 242.575 120.432 241.528C121.477 240.419 122.799 239.865 124.398 239.865ZM105.767 280.988C108.472 280.988 110.839 280.311 112.869 278.955C114.898 277.599 116.466 275.751 117.573 273.41C118.741 271.07 119.325 268.45 119.325 265.555C119.325 262.598 118.741 259.948 117.573 257.608C116.466 255.267 114.898 253.419 112.869 252.063C110.839 250.707 108.472 250.03 105.767 250.03C103.122 250.03 100.786 250.707 98.7566 252.063C96.7274 253.419 95.1287 255.267 93.9604 257.608C92.8536 259.948 92.3001 262.598 92.3001 265.555C92.3001 268.45 92.8536 271.07 93.9604 273.41C95.1287 275.751 96.7274 277.599 98.7566 278.955C100.786 280.311 103.122 280.988 105.767 280.988ZM167.466 239.865C171.77 239.865 175.613 240.974 178.996 243.192C182.439 245.347 185.144 248.336 187.112 252.156C189.141 255.975 190.155 260.41 190.155 265.463C190.155 270.515 189.141 274.981 187.112 278.862C185.144 282.682 182.469 285.701 179.088 287.919C175.767 290.074 172.016 291.153 167.835 291.153C165.375 291.153 163.069 290.753 160.917 289.952C158.764 289.15 156.859 288.134 155.199 286.902C153.599 285.67 152.34 284.437 151.417 283.206C150.555 281.912 150.126 280.833 150.126 279.971L152.985 278.77V303.074C152.985 304.675 152.462 306.001 151.417 307.048C150.371 308.157 149.049 308.711 147.45 308.711C145.851 308.711 144.53 308.187 143.484 307.14C142.439 306.093 141.916 304.738 141.916 303.074V246.426C141.916 244.825 142.439 243.499 143.484 242.452C144.53 241.343 145.851 240.789 147.45 240.789C149.049 240.789 150.371 241.343 151.417 242.452C152.462 243.499 152.985 244.825 152.985 246.426V250.954L151.417 250.123C151.417 249.321 151.847 248.367 152.708 247.258C153.569 246.087 154.738 244.947 156.213 243.839C157.689 242.668 159.38 241.713 161.286 240.974C163.254 240.235 165.313 239.865 167.466 239.865ZM166.083 250.03C163.376 250.03 161.01 250.707 158.979 252.063C156.951 253.419 155.352 255.267 154.184 257.608C153.077 259.888 152.524 262.506 152.524 265.463C152.524 268.358 153.077 271.007 154.184 273.41C155.352 275.751 156.951 277.599 158.979 278.955C161.01 280.311 163.376 280.988 166.083 280.988C168.788 280.988 171.124 280.311 173.093 278.955C175.122 277.599 176.69 275.751 177.797 273.41C178.964 271.007 179.549 268.358 179.549 265.463C179.549 262.506 178.964 259.888 177.797 257.608C176.69 255.267 175.122 253.419 173.093 252.063C171.124 250.707 168.788 250.03 166.083 250.03ZM223.077 291.153C217.85 291.153 213.3 290.074 209.426 287.919C205.614 285.701 202.663 282.713 200.571 278.955C198.542 275.196 197.528 270.945 197.528 266.202C197.528 260.657 198.634 255.944 200.848 252.063C203.124 248.12 206.075 245.102 209.703 243.007C213.33 240.912 217.174 239.865 221.232 239.865C224.368 239.865 227.32 240.512 230.087 241.806C232.916 243.099 235.406 244.885 237.558 247.165C239.709 249.383 241.401 251.971 242.631 254.928C243.922 257.885 244.568 261.027 244.568 264.354C244.506 265.832 243.922 267.034 242.815 267.958C241.708 268.882 240.417 269.344 238.941 269.344H203.707L200.94 260.103H234.791L232.762 261.951V259.456C232.639 257.67 231.993 256.067 230.825 254.651C229.718 253.234 228.304 252.125 226.582 251.324C224.922 250.462 223.139 250.03 221.232 250.03C219.387 250.03 217.665 250.277 216.067 250.769C214.469 251.262 213.085 252.093 211.916 253.264C210.748 254.435 209.825 256.007 209.149 257.977C208.473 259.948 208.135 262.444 208.135 265.463C208.135 268.79 208.811 271.624 210.164 273.965C211.578 276.245 213.362 278 215.514 279.232C217.727 280.403 220.063 280.988 222.523 280.988C224.799 280.988 226.612 280.803 227.965 280.433C229.319 280.064 230.394 279.632 231.194 279.14C232.054 278.585 232.824 278.123 233.499 277.753C234.606 277.199 235.651 276.922 236.635 276.922C237.989 276.922 239.096 277.384 239.956 278.308C240.878 279.232 241.339 280.311 241.339 281.542C241.339 283.206 240.479 284.715 238.757 286.07C237.159 287.426 234.913 288.628 232.024 289.674C229.134 290.661 226.151 291.153 223.077 291.153ZM251.379 282.559C250.763 281.697 250.487 280.588 250.549 279.232C250.611 277.876 251.409 276.707 252.947 275.72C253.931 275.104 254.976 274.858 256.083 274.981C257.189 275.043 258.266 275.598 259.311 276.645C261.094 278.431 262.97 279.817 264.937 280.803C266.904 281.789 269.365 282.282 272.316 282.282C273.238 282.22 274.253 282.097 275.36 281.912C276.467 281.665 277.419 281.173 278.219 280.433C279.08 279.632 279.51 278.431 279.51 276.829C279.51 275.474 279.049 274.396 278.127 273.595C277.205 272.794 275.975 272.116 274.437 271.562C272.962 271.007 271.301 270.483 269.457 269.991C267.55 269.436 265.583 268.82 263.554 268.143C261.587 267.465 259.772 266.602 258.112 265.555C256.452 264.446 255.098 262.998 254.053 261.212C253.009 259.426 252.485 257.176 252.485 254.466C252.485 251.386 253.346 248.767 255.068 246.611C256.79 244.455 259.004 242.792 261.709 241.621C264.476 240.45 267.366 239.865 270.379 239.865C272.286 239.865 274.283 240.112 276.374 240.604C278.466 241.036 280.463 241.775 282.37 242.822C284.276 243.808 285.875 245.132 287.166 246.796C287.842 247.72 288.242 248.829 288.365 250.123C288.487 251.416 287.904 252.587 286.613 253.634C285.69 254.373 284.614 254.713 283.384 254.651C282.155 254.528 281.14 254.096 280.341 253.357C279.296 252.001 277.88 250.924 276.098 250.123C274.376 249.321 272.378 248.921 270.102 248.921C269.18 248.921 268.165 249.044 267.059 249.291C266.014 249.476 265.091 249.938 264.292 250.677C263.492 251.354 263.093 252.463 263.093 254.004C263.093 255.42 263.554 256.561 264.476 257.423C265.398 258.224 266.628 258.902 268.165 259.456C269.764 259.948 271.456 260.442 273.238 260.935C275.083 261.427 276.958 262.013 278.865 262.69C280.771 263.368 282.524 264.261 284.122 265.37C285.72 266.479 287.012 267.928 287.996 269.714C288.98 271.439 289.472 273.657 289.472 276.367C289.472 279.509 288.549 282.189 286.705 284.407C284.86 286.625 282.554 288.319 279.787 289.49C277.02 290.599 274.191 291.153 271.301 291.153C267.674 291.153 264.045 290.537 260.418 289.305C256.79 288.011 253.777 285.763 251.379 282.559Z" fill="#2BD1E1"/>
<mask id="path-6-inside-1_12_96" fill="white">
<path d="M72.4235 228.604C74.0222 229.405 74.9446 230.667 75.1906 232.393C75.498 234.118 75.0677 235.689 73.8993 237.106C73.0999 238.215 72.0546 238.831 70.7633 238.954C69.5335 239.077 68.2729 238.831 66.9816 238.215C65.5059 237.538 63.9379 237.013 62.2776 236.644C60.679 236.274 58.9879 236.089 57.2047 236.089C53.8842 236.089 50.902 236.613 48.2579 237.66C45.6753 238.707 43.4616 240.218 41.6169 242.188C39.7722 244.099 38.358 246.377 37.3741 249.027C36.4518 251.677 35.9906 254.602 35.9906 257.806C35.9906 261.565 36.5133 264.829 37.5586 267.602C38.6654 270.374 40.1719 272.684 42.0781 274.532C43.9844 276.381 46.2287 277.767 48.8113 278.691C51.3939 279.553 54.1916 279.985 57.2047 279.985C58.8649 279.985 60.5252 279.83 62.1854 279.523C63.8456 279.215 65.4443 278.661 66.9816 277.859C68.2729 277.243 69.5335 277.028 70.7633 277.212C72.0546 277.397 73.1307 278.044 73.9915 279.153C75.2213 280.694 75.6518 282.295 75.2828 283.958C74.9754 285.56 74.0531 286.731 72.5158 287.47C70.9171 288.271 69.2568 288.949 67.5351 289.503C65.8748 289.995 64.1839 290.365 62.4621 290.612C60.7403 290.92 58.9879 291.074 57.2047 291.074C52.7774 291.074 48.5653 290.365 44.5685 288.949C40.6331 287.532 37.0974 285.437 33.9614 282.665C30.887 279.892 28.458 276.443 26.6748 272.315C24.8917 268.126 24 263.289 24 257.806C24 253.063 24.7994 248.688 26.3981 244.684C28.0584 240.68 30.3642 237.229 33.3158 234.334C36.3288 231.376 39.8645 229.096 43.9228 227.495C47.9812 225.832 52.4085 225 57.2047 225C59.9102 225 62.5544 225.308 65.1369 225.924C67.7195 226.541 70.1483 227.433 72.4235 228.604ZM124.532 239.786C126.131 239.786 127.453 240.31 128.498 241.357C129.544 242.404 130.066 243.759 130.066 245.423V284.513C130.066 286.114 129.544 287.47 128.498 288.579C127.453 289.626 126.131 290.15 124.532 290.15C122.933 290.15 121.611 289.626 120.566 288.579C119.521 287.47 118.998 286.114 118.998 284.513V279.985L121.027 280.816C121.027 281.618 120.597 282.603 119.736 283.774C118.875 284.882 117.707 285.991 116.231 287.1C114.755 288.209 113.003 289.164 110.974 289.965C109.006 290.704 106.854 291.074 104.517 291.074C100.274 291.074 96.4311 289.995 92.9877 287.84C89.5443 285.622 86.8079 282.603 84.7787 278.783C82.8111 274.902 81.8272 270.466 81.8272 265.476C81.8272 260.424 82.8111 255.988 84.7787 252.169C86.8079 248.288 89.5134 245.268 92.8954 243.113C96.2775 240.895 100.028 239.786 104.148 239.786C106.792 239.786 109.221 240.186 111.435 240.987C113.648 241.789 115.555 242.805 117.153 244.037C118.814 245.268 120.074 246.532 120.935 247.826C121.857 249.057 122.319 250.106 122.319 250.968L118.998 252.169V245.423C118.998 243.822 119.521 242.496 120.566 241.449C121.611 240.34 122.933 239.786 124.532 239.786ZM105.901 280.909C108.606 280.909 110.974 280.232 113.003 278.876C115.032 277.52 116.6 275.672 117.707 273.331C118.875 270.99 119.459 268.371 119.459 265.476C119.459 262.519 118.875 259.869 117.707 257.529C116.6 255.188 115.032 253.34 113.003 251.984C110.974 250.628 108.606 249.951 105.901 249.951C103.257 249.951 100.92 250.628 98.8907 251.984C96.8616 253.34 95.2629 255.188 94.0945 257.529C92.9877 259.869 92.4343 262.519 92.4343 265.476C92.4343 268.371 92.9877 270.99 94.0945 273.331C95.2629 275.672 96.8616 277.52 98.8907 278.876C100.92 280.232 103.257 280.909 105.901 280.909ZM167.6 239.786C171.904 239.786 175.747 240.895 179.13 243.113C182.573 245.268 185.278 248.257 187.246 252.076C189.276 255.896 190.289 260.331 190.289 265.384C190.289 270.436 189.276 274.902 187.246 278.783C185.278 282.603 182.603 285.622 179.222 287.84C175.901 289.995 172.15 291.074 167.969 291.074C165.509 291.074 163.203 290.674 161.052 289.873C158.898 289.071 156.993 288.055 155.333 286.823C153.733 285.591 152.474 284.358 151.551 283.127C150.69 281.833 150.26 280.754 150.26 279.892L153.119 278.691V302.995C153.119 304.596 152.596 305.922 151.551 306.969C150.505 308.078 149.183 308.632 147.584 308.632C145.986 308.632 144.664 308.108 143.618 307.061C142.573 306.014 142.05 304.658 142.05 302.995V246.347C142.05 244.746 142.573 243.42 143.618 242.373C144.664 241.264 145.986 240.71 147.584 240.71C149.183 240.71 150.505 241.264 151.551 242.373C152.596 243.42 153.119 244.746 153.119 246.347V250.875L151.551 250.043C151.551 249.242 151.981 248.288 152.843 247.179C153.703 246.008 154.872 244.868 156.348 243.759C157.823 242.588 159.514 241.634 161.421 240.895C163.388 240.155 165.447 239.786 167.6 239.786ZM166.217 249.951C163.51 249.951 161.144 250.628 159.113 251.984C157.085 253.34 155.486 255.188 154.318 257.529C153.212 259.809 152.658 262.427 152.658 265.384C152.658 268.279 153.212 270.928 154.318 273.331C155.486 275.672 157.085 277.52 159.113 278.876C161.144 280.232 163.51 280.909 166.217 280.909C168.922 280.909 171.258 280.232 173.227 278.876C175.256 277.52 176.824 275.672 177.931 273.331C179.098 270.928 179.683 268.279 179.683 265.384C179.683 262.427 179.098 259.809 177.931 257.529C176.824 255.188 175.256 253.34 173.227 251.984C171.258 250.628 168.922 249.951 166.217 249.951ZM223.211 291.074C217.984 291.074 213.434 289.995 209.56 287.84C205.748 285.622 202.797 282.634 200.706 278.876C198.676 275.117 197.662 270.866 197.662 266.123C197.662 260.578 198.769 255.865 200.982 251.984C203.258 248.041 206.209 245.023 209.837 242.928C213.464 240.833 217.308 239.786 221.366 239.786C224.502 239.786 227.454 240.433 230.221 241.726C233.05 243.02 235.54 244.806 237.692 247.086C239.844 249.304 241.536 251.892 242.765 254.849C244.056 257.806 244.702 260.948 244.702 264.275C244.64 265.753 244.056 266.955 242.949 267.879C241.842 268.803 240.551 269.265 239.075 269.265H203.842L201.074 260.024H234.925L232.896 261.872V259.377C232.773 257.591 232.128 255.988 230.959 254.572C229.852 253.155 228.438 252.046 226.716 251.245C225.056 250.383 223.273 249.951 221.366 249.951C219.522 249.951 217.799 250.198 216.201 250.69C214.603 251.183 213.219 252.014 212.05 253.185C210.882 254.356 209.959 255.927 209.283 257.898C208.607 259.869 208.269 262.364 208.269 265.384C208.269 268.711 208.945 271.545 210.298 273.886C211.712 276.165 213.496 277.921 215.648 279.153C217.861 280.324 220.197 280.909 222.658 280.909C224.933 280.909 226.746 280.724 228.099 280.354C229.453 279.985 230.528 279.553 231.328 279.061C232.188 278.506 232.958 278.044 233.634 277.674C234.74 277.12 235.785 276.843 236.77 276.843C238.123 276.843 239.23 277.305 240.09 278.229C241.012 279.153 241.474 280.232 241.474 281.463C241.474 283.127 240.613 284.636 238.891 285.991C237.293 287.347 235.047 288.549 232.158 289.595C229.268 290.582 226.285 291.074 223.211 291.074ZM251.513 282.48C250.897 281.618 250.621 280.509 250.683 279.153C250.745 277.797 251.543 276.628 253.081 275.641C254.065 275.025 255.11 274.779 256.217 274.902C257.324 274.964 258.4 275.519 259.445 276.565C261.228 278.352 263.104 279.738 265.071 280.724C267.039 281.71 269.499 282.203 272.45 282.203C273.373 282.14 274.387 282.018 275.494 281.833C276.601 281.586 277.553 281.094 278.353 280.354C279.214 279.553 279.645 278.352 279.645 276.75C279.645 275.394 279.183 274.317 278.261 273.516C277.339 272.714 276.109 272.037 274.572 271.483C273.096 270.928 271.436 270.404 269.591 269.912C267.684 269.357 265.717 268.741 263.688 268.064C261.721 267.386 259.906 266.523 258.246 265.476C256.586 264.367 255.232 262.919 254.188 261.133C253.143 259.347 252.62 257.097 252.62 254.387C252.62 251.307 253.48 248.688 255.202 246.532C256.924 244.376 259.138 242.713 261.843 241.542C264.61 240.371 267.5 239.786 270.513 239.786C272.42 239.786 274.417 240.033 276.509 240.525C278.6 240.957 280.597 241.696 282.504 242.743C284.41 243.729 286.009 245.053 287.3 246.717C287.976 247.641 288.377 248.75 288.499 250.043C288.622 251.337 288.038 252.508 286.747 253.555C285.824 254.294 284.748 254.634 283.518 254.572C282.289 254.449 281.275 254.017 280.475 253.278C279.43 251.922 278.015 250.845 276.232 250.043C274.51 249.242 272.512 248.842 270.237 248.842C269.314 248.842 268.3 248.965 267.193 249.212C266.148 249.397 265.226 249.859 264.426 250.598C263.626 251.275 263.227 252.384 263.227 253.925C263.227 255.341 263.688 256.482 264.61 257.344C265.533 258.145 266.762 258.823 268.3 259.377C269.898 259.869 271.59 260.363 273.373 260.856C275.217 261.348 277.092 261.934 278.999 262.611C280.906 263.289 282.658 264.182 284.256 265.291C285.855 266.4 287.146 267.848 288.13 269.635C289.115 271.36 289.606 273.578 289.606 276.288C289.606 279.43 288.684 282.11 286.839 284.328C284.994 286.546 282.688 288.24 279.921 289.411C277.154 290.52 274.325 291.074 271.436 291.074C267.808 291.074 264.179 290.457 260.552 289.226C256.924 287.932 253.911 285.684 251.513 282.48Z"/>
</mask>
<path d="M72.4235 228.604C74.0222 229.405 74.9446 230.667 75.1906 232.393C75.498 234.118 75.0677 235.689 73.8993 237.106C73.0999 238.215 72.0546 238.831 70.7633 238.954C69.5335 239.077 68.2729 238.831 66.9816 238.215C65.5059 237.538 63.9379 237.013 62.2776 236.644C60.679 236.274 58.9879 236.089 57.2047 236.089C53.8842 236.089 50.902 236.613 48.2579 237.66C45.6753 238.707 43.4616 240.218 41.6169 242.188C39.7722 244.099 38.358 246.377 37.3741 249.027C36.4518 251.677 35.9906 254.602 35.9906 257.806C35.9906 261.565 36.5133 264.829 37.5586 267.602C38.6654 270.374 40.1719 272.684 42.0781 274.532C43.9844 276.381 46.2287 277.767 48.8113 278.691C51.3939 279.553 54.1916 279.985 57.2047 279.985C58.8649 279.985 60.5252 279.83 62.1854 279.523C63.8456 279.215 65.4443 278.661 66.9816 277.859C68.2729 277.243 69.5335 277.028 70.7633 277.212C72.0546 277.397 73.1307 278.044 73.9915 279.153C75.2213 280.694 75.6518 282.295 75.2828 283.958C74.9754 285.56 74.0531 286.731 72.5158 287.47C70.9171 288.271 69.2568 288.949 67.5351 289.503C65.8748 289.995 64.1839 290.365 62.4621 290.612C60.7403 290.92 58.9879 291.074 57.2047 291.074C52.7774 291.074 48.5653 290.365 44.5685 288.949C40.6331 287.532 37.0974 285.437 33.9614 282.665C30.887 279.892 28.458 276.443 26.6748 272.315C24.8917 268.126 24 263.289 24 257.806C24 253.063 24.7994 248.688 26.3981 244.684C28.0584 240.68 30.3642 237.229 33.3158 234.334C36.3288 231.376 39.8645 229.096 43.9228 227.495C47.9812 225.832 52.4085 225 57.2047 225C59.9102 225 62.5544 225.308 65.1369 225.924C67.7195 226.541 70.1483 227.433 72.4235 228.604ZM124.532 239.786C126.131 239.786 127.453 240.31 128.498 241.357C129.544 242.404 130.066 243.759 130.066 245.423V284.513C130.066 286.114 129.544 287.47 128.498 288.579C127.453 289.626 126.131 290.15 124.532 290.15C122.933 290.15 121.611 289.626 120.566 288.579C119.521 287.47 118.998 286.114 118.998 284.513V279.985L121.027 280.816C121.027 281.618 120.597 282.603 119.736 283.774C118.875 284.882 117.707 285.991 116.231 287.1C114.755 288.209 113.003 289.164 110.974 289.965C109.006 290.704 106.854 291.074 104.517 291.074C100.274 291.074 96.4311 289.995 92.9877 287.84C89.5443 285.622 86.8079 282.603 84.7787 278.783C82.8111 274.902 81.8272 270.466 81.8272 265.476C81.8272 260.424 82.8111 255.988 84.7787 252.169C86.8079 248.288 89.5134 245.268 92.8954 243.113C96.2775 240.895 100.028 239.786 104.148 239.786C106.792 239.786 109.221 240.186 111.435 240.987C113.648 241.789 115.555 242.805 117.153 244.037C118.814 245.268 120.074 246.532 120.935 247.826C121.857 249.057 122.319 250.106 122.319 250.968L118.998 252.169V245.423C118.998 243.822 119.521 242.496 120.566 241.449C121.611 240.34 122.933 239.786 124.532 239.786ZM105.901 280.909C108.606 280.909 110.974 280.232 113.003 278.876C115.032 277.52 116.6 275.672 117.707 273.331C118.875 270.99 119.459 268.371 119.459 265.476C119.459 262.519 118.875 259.869 117.707 257.529C116.6 255.188 115.032 253.34 113.003 251.984C110.974 250.628 108.606 249.951 105.901 249.951C103.257 249.951 100.92 250.628 98.8907 251.984C96.8616 253.34 95.2629 255.188 94.0945 257.529C92.9877 259.869 92.4343 262.519 92.4343 265.476C92.4343 268.371 92.9877 270.99 94.0945 273.331C95.2629 275.672 96.8616 277.52 98.8907 278.876C100.92 280.232 103.257 280.909 105.901 280.909ZM167.6 239.786C171.904 239.786 175.747 240.895 179.13 243.113C182.573 245.268 185.278 248.257 187.246 252.076C189.276 255.896 190.289 260.331 190.289 265.384C190.289 270.436 189.276 274.902 187.246 278.783C185.278 282.603 182.603 285.622 179.222 287.84C175.901 289.995 172.15 291.074 167.969 291.074C165.509 291.074 163.203 290.674 161.052 289.873C158.898 289.071 156.993 288.055 155.333 286.823C153.733 285.591 152.474 284.358 151.551 283.127C150.69 281.833 150.26 280.754 150.26 279.892L153.119 278.691V302.995C153.119 304.596 152.596 305.922 151.551 306.969C150.505 308.078 149.183 308.632 147.584 308.632C145.986 308.632 144.664 308.108 143.618 307.061C142.573 306.014 142.05 304.658 142.05 302.995V246.347C142.05 244.746 142.573 243.42 143.618 242.373C144.664 241.264 145.986 240.71 147.584 240.71C149.183 240.71 150.505 241.264 151.551 242.373C152.596 243.42 153.119 244.746 153.119 246.347V250.875L151.551 250.043C151.551 249.242 151.981 248.288 152.843 247.179C153.703 246.008 154.872 244.868 156.348 243.759C157.823 242.588 159.514 241.634 161.421 240.895C163.388 240.155 165.447 239.786 167.6 239.786ZM166.217 249.951C163.51 249.951 161.144 250.628 159.113 251.984C157.085 253.34 155.486 255.188 154.318 257.529C153.212 259.809 152.658 262.427 152.658 265.384C152.658 268.279 153.212 270.928 154.318 273.331C155.486 275.672 157.085 277.52 159.113 278.876C161.144 280.232 163.51 280.909 166.217 280.909C168.922 280.909 171.258 280.232 173.227 278.876C175.256 277.52 176.824 275.672 177.931 273.331C179.098 270.928 179.683 268.279 179.683 265.384C179.683 262.427 179.098 259.809 177.931 257.529C176.824 255.188 175.256 253.34 173.227 251.984C171.258 250.628 168.922 249.951 166.217 249.951ZM223.211 291.074C217.984 291.074 213.434 289.995 209.56 287.84C205.748 285.622 202.797 282.634 200.706 278.876C198.676 275.117 197.662 270.866 197.662 266.123C197.662 260.578 198.769 255.865 200.982 251.984C203.258 248.041 206.209 245.023 209.837 242.928C213.464 240.833 217.308 239.786 221.366 239.786C224.502 239.786 227.454 240.433 230.221 241.726C233.05 243.02 235.54 244.806 237.692 247.086C239.844 249.304 241.536 251.892 242.765 254.849C244.056 257.806 244.702 260.948 244.702 264.275C244.64 265.753 244.056 266.955 242.949 267.879C241.842 268.803 240.551 269.265 239.075 269.265H203.842L201.074 260.024H234.925L232.896 261.872V259.377C232.773 257.591 232.128 255.988 230.959 254.572C229.852 253.155 228.438 252.046 226.716 251.245C225.056 250.383 223.273 249.951 221.366 249.951C219.522 249.951 217.799 250.198 216.201 250.69C214.603 251.183 213.219 252.014 212.05 253.185C210.882 254.356 209.959 255.927 209.283 257.898C208.607 259.869 208.269 262.364 208.269 265.384C208.269 268.711 208.945 271.545 210.298 273.886C211.712 276.165 213.496 277.921 215.648 279.153C217.861 280.324 220.197 280.909 222.658 280.909C224.933 280.909 226.746 280.724 228.099 280.354C229.453 279.985 230.528 279.553 231.328 279.061C232.188 278.506 232.958 278.044 233.634 277.674C234.74 277.12 235.785 276.843 236.77 276.843C238.123 276.843 239.23 277.305 240.09 278.229C241.012 279.153 241.474 280.232 241.474 281.463C241.474 283.127 240.613 284.636 238.891 285.991C237.293 287.347 235.047 288.549 232.158 289.595C229.268 290.582 226.285 291.074 223.211 291.074ZM251.513 282.48C250.897 281.618 250.621 280.509 250.683 279.153C250.745 277.797 251.543 276.628 253.081 275.641C254.065 275.025 255.11 274.779 256.217 274.902C257.324 274.964 258.4 275.519 259.445 276.565C261.228 278.352 263.104 279.738 265.071 280.724C267.039 281.71 269.499 282.203 272.45 282.203C273.373 282.14 274.387 282.018 275.494 281.833C276.601 281.586 277.553 281.094 278.353 280.354C279.214 279.553 279.645 278.352 279.645 276.75C279.645 275.394 279.183 274.317 278.261 273.516C277.339 272.714 276.109 272.037 274.572 271.483C273.096 270.928 271.436 270.404 269.591 269.912C267.684 269.357 265.717 268.741 263.688 268.064C261.721 267.386 259.906 266.523 258.246 265.476C256.586 264.367 255.232 262.919 254.188 261.133C253.143 259.347 252.62 257.097 252.62 254.387C252.62 251.307 253.48 248.688 255.202 246.532C256.924 244.376 259.138 242.713 261.843 241.542C264.61 240.371 267.5 239.786 270.513 239.786C272.42 239.786 274.417 240.033 276.509 240.525C278.6 240.957 280.597 241.696 282.504 242.743C284.41 243.729 286.009 245.053 287.3 246.717C287.976 247.641 288.377 248.75 288.499 250.043C288.622 251.337 288.038 252.508 286.747 253.555C285.824 254.294 284.748 254.634 283.518 254.572C282.289 254.449 281.275 254.017 280.475 253.278C279.43 251.922 278.015 250.845 276.232 250.043C274.51 249.242 272.512 248.842 270.237 248.842C269.314 248.842 268.3 248.965 267.193 249.212C266.148 249.397 265.226 249.859 264.426 250.598C263.626 251.275 263.227 252.384 263.227 253.925C263.227 255.341 263.688 256.482 264.61 257.344C265.533 258.145 266.762 258.823 268.3 259.377C269.898 259.869 271.59 260.363 273.373 260.856C275.217 261.348 277.092 261.934 278.999 262.611C280.906 263.289 282.658 264.182 284.256 265.291C285.855 266.4 287.146 267.848 288.13 269.635C289.115 271.36 289.606 273.578 289.606 276.288C289.606 279.43 288.684 282.11 286.839 284.328C284.994 286.546 282.688 288.24 279.921 289.411C277.154 290.52 274.325 291.074 271.436 291.074C267.808 291.074 264.179 290.457 260.552 289.226C256.924 287.932 253.911 285.684 251.513 282.48Z" fill="url(#paint1_linear_12_96)" fill-opacity="0.8" stroke="url(#paint2_linear_12_96)" stroke-width="2" mask="url(#path-6-inside-1_12_96)"/>
<defs>
<linearGradient id="paint0_linear_12_96" x1="256.529" y1="66.4206" x2="96.3784" y2="170.105" gradientUnits="userSpaceOnUse">
<stop stop-color="white"/>
<stop offset="1" stop-color="white" stop-opacity="0"/>
</linearGradient>
<linearGradient id="paint1_linear_12_96" x1="208.384" y1="303.145" x2="294.261" y2="234.718" gradientUnits="userSpaceOnUse">
<stop stop-color="white" stop-opacity="0"/>
<stop offset="1" stop-color="white"/>
</linearGradient>
<linearGradient id="paint2_linear_12_96" x1="24" y1="265" x2="37" y2="264" gradientUnits="userSpaceOnUse">
<stop stop-color="white"/>
<stop offset="1" stop-color="white" stop-opacity="0"/>
</linearGradient>
</defs>
</svg>
